<svg width="133" height="24" viewBox="0 0 133 24" fill="none" xmlns="http://www.w3.org/2000/svg">
<path fill-rule="evenodd" clip-rule="evenodd" d="M12.0814 23.9997C9.76322 23.9997 7.83541 23.2992 6.29531 21.5158C5.65359 20.7725 5.0814 19.9623 4.55734 19.1308L4.54664 19.1147L0.696375 12.5452C0.525252 12.2538 0.378194 11.9489 0.265894 11.6281C0.0707071 11.0532 0.00386215 10.5826 0.00118835 9.97569C-0.00148544 8.30456 0.00118835 6.63076 0.00118835 4.95964C0.00118835 4.00242 -0.0228758 3.24841 0.410279 2.36606C1.18301 0.788519 2.8568 0.0371825 4.55199 0.0157921C7.05734 -0.0162934 9.57873 0.0104445 12.0814 0.0104445C14.5841 0.0104445 17.1081 -0.0162934 19.6108 0.0157921C21.306 0.0371825 22.9771 0.788519 23.7499 2.36606C24.183 3.25109 24.1563 4.0051 24.1589 4.95964C24.1589 6.63076 24.1616 8.30456 24.1589 9.97569C24.1589 10.5826 24.0921 11.0532 23.8942 11.6281C23.7846 11.9489 23.6376 12.2511 23.4638 12.5452L19.6108 19.1147L19.6001 19.1308C19.0761 19.9623 18.5039 20.7725 17.8622 21.5158C16.3247 23.2992 14.3942 23.9997 12.0761 23.9997H12.0814Z" fill="#FF3466"/>
<path fill-rule="evenodd" clip-rule="evenodd" d="M12.0601 22.8422C10.1002 22.8396 8.48789 22.2861 7.17238 20.7593C6.62693 20.1283 6.08415 19.3797 5.53869 18.5134L1.69645 11.9572C1.55741 11.7219 1.45046 11.492 1.36222 11.2486C1.20714 10.7941 1.16169 10.4759 1.16169 9.97057C1.16169 8.55613 1.16169 6.88501 1.16169 4.9572C1.16169 4.06148 1.13495 3.51603 1.45313 2.87164C2.02532 1.70052 3.31142 1.18448 4.5681 1.16843C4.83281 1.16576 7.43709 1.16309 12.0628 1.16309C16.6884 1.16309 19.2927 1.16309 19.5574 1.16843C20.8168 1.18448 22.1002 1.70052 22.6724 2.87164C22.9879 3.51603 22.9612 4.06416 22.9638 4.9572C22.9638 6.88501 22.9665 8.55613 22.9638 9.97057C22.9638 10.4759 22.9157 10.7941 22.7633 11.2486C22.6777 11.492 22.5681 11.7219 22.4291 11.9572L18.5868 18.5134C18.0414 19.3797 17.4986 20.1283 16.9531 20.7593C15.6376 22.2861 14.0253 22.8369 12.0654 22.8422H12.0601ZM12.0601 2.62298H4.10554C3.36757 2.62298 2.76864 3.21924 2.76864 3.95988V9.89303C2.76864 10.516 2.91837 11.0508 3.2419 11.5855L4.53334 13.7166L7.54137 18.6818C8.45313 20.1257 10.1029 21.1257 12.0601 21.1203C14.0173 21.1257 15.667 20.1283 16.5788 18.6818L19.5868 13.7166L20.8783 11.5855C21.2018 11.0535 21.3515 10.5187 21.3515 9.89303V3.95988C21.3515 3.22191 20.7526 2.62298 20.0146 2.62298H12.0601Z" fill="#FFF4E1"/>
<path fill-rule="evenodd" clip-rule="evenodd" d="M21.3514 9.88994V3.95946C21.3514 3.22149 20.7525 2.62256 20.0145 2.62256H4.10545C3.36749 2.62256 2.76855 3.21882 2.76855 3.95946V9.89261C2.76855 10.5156 2.91829 11.0504 3.24182 11.5851L4.53326 13.7161L7.54128 18.6814C8.45305 20.1252 10.1028 21.1252 12.06 21.1199C14.0172 21.1252 15.667 20.1279 16.5787 18.6814L19.5867 13.7161L20.8782 11.5851C21.2017 11.053 21.3514 10.5183 21.3514 9.89261V9.88994Z" fill="#371853"/>
<path fill-rule="evenodd" clip-rule="evenodd" d="M13.5976 10.6924C14.9692 10.1336 16.2874 9.4651 17.3783 8.31804C17.4639 8.19505 17.4772 7.99184 17.4077 7.87419L17.2312 7.58008L17.0521 7.28061C16.9826 7.16296 16.8516 7.16831 16.766 7.29131C15.7259 8.38489 14.4772 9.04264 13.1751 9.58542C13.75 8.22179 14.2072 6.81804 14.1671 5.23783C14.143 5.09344 14.0093 4.93034 13.8703 4.90361L13.5334 4.81804L13.1965 4.73248C13.0681 4.7004 12.9746 4.79131 12.9959 4.94906C13.0334 6.46243 12.6163 7.8127 12.0762 9.12018C11.5173 7.74852 10.8489 6.42767 9.70183 5.33409C9.57884 5.24853 9.37563 5.23516 9.25798 5.30467L8.96119 5.48115L8.6644 5.65762C8.54675 5.72713 8.5521 5.85815 8.67509 5.94371C9.76868 6.98382 10.4264 8.23248 10.9692 9.53462C9.60558 8.95975 8.20183 8.50254 6.62162 8.54264C6.47723 8.56671 6.31413 8.7004 6.28739 8.83943L6.20183 9.17633L6.11627 9.51323C6.08419 9.64157 6.17509 9.73516 6.33285 9.71377C7.8382 9.67633 9.18579 10.0908 10.4906 10.6282C9.12162 11.187 7.80611 11.8555 6.7152 12.9999C6.62964 13.1229 6.61627 13.3261 6.68579 13.4437L6.86226 13.7405L7.03873 14.0373C7.10825 14.1549 7.23927 14.1496 7.32483 14.0266C8.36761 12.9303 9.62162 12.2699 10.9291 11.7245C10.3516 13.0934 9.889 14.5025 9.92911 16.0854C9.95852 16.2378 10.0976 16.3876 10.2259 16.4196L10.5628 16.5052L10.9024 16.5908C11.0307 16.6229 11.1243 16.5319 11.1029 16.3742C11.0681 14.8688 11.4826 13.5239 12.02 12.2191C12.5788 13.5854 13.2473 14.9009 14.3917 15.9918C14.5147 16.0774 14.7179 16.0908 14.8355 16.0213L15.1323 15.8448L15.4291 15.6683C15.5468 15.5988 15.5414 15.4678 15.4184 15.3822C14.3222 14.3394 13.6617 13.0854 13.1163 11.7779C14.4853 12.3555 15.8943 12.818 17.4772 12.7779C17.6216 12.7539 17.7794 12.6095 17.8115 12.4811L17.897 12.1442L17.9826 11.8073C18.0147 11.679 17.9238 11.5854 17.766 11.6068C16.2553 11.6416 14.905 11.2218 13.5976 10.6844V10.6924Z" fill="#FFF4E1"/>
<path d="M49.5101 12.0909C49.5101 13.5483 49.247 14.8078 48.7207 15.8693C48.1944 16.9309 47.4725 17.7495 46.5549 18.3253C45.6373 18.901 44.5892 19.1889 43.4107 19.1889C42.2322 19.1889 41.1841 18.901 40.2665 18.3253C39.3489 17.7495 38.627 16.9309 38.1007 15.8693C37.5744 14.8078 37.3113 13.5483 37.3113 12.0909C37.3113 10.6335 37.5744 9.37405 38.1007 8.3125C38.627 7.25095 39.3489 6.43229 40.2665 5.85653C41.1841 5.28078 42.2322 4.9929 43.4107 4.9929C44.5892 4.9929 45.6373 5.28078 46.5549 5.85653C47.4725 6.43229 48.1944 7.25095 48.7207 8.3125C49.247 9.37405 49.5101 10.6335 49.5101 12.0909ZM47.8908 12.0909C47.8908 10.8944 47.6906 9.88459 47.2903 9.06143C46.8945 8.23828 46.3569 7.61529 45.6777 7.19247C45.003 6.76965 44.2473 6.55824 43.4107 6.55824C42.574 6.55824 41.8161 6.76965 41.1369 7.19247C40.4622 7.61529 39.9247 8.23828 39.5243 9.06143C39.1285 9.88459 38.9306 10.8944 38.9306 12.0909C38.9306 13.2874 39.1285 14.2972 39.5243 15.1204C39.9247 15.9435 40.4622 16.5665 41.1369 16.9893C41.8161 17.4122 42.574 17.6236 43.4107 17.6236C44.2473 17.6236 45.003 17.4122 45.6777 16.9893C46.3569 16.5665 46.8945 15.9435 47.2903 15.1204C47.6906 14.2972 47.8908 13.2874 47.8908 12.0909ZM52.1078 19V8.63636H53.6461V10.2017H53.7541C53.943 9.68892 54.2849 9.27285 54.7797 8.95348C55.2744 8.63411 55.8322 8.47443 56.4529 8.47443C56.5699 8.47443 56.7161 8.47668 56.8915 8.48118C57.0669 8.48568 57.1996 8.49242 57.2896 8.50142V10.1207C57.2356 10.1072 57.1119 10.087 56.9185 10.06C56.7296 10.0285 56.5294 10.0128 56.318 10.0128C55.8142 10.0128 55.3644 10.1185 54.9686 10.3299C54.5772 10.5368 54.2669 10.8247 54.0375 11.1935C53.8126 11.5579 53.7001 11.974 53.7001 12.4418V19H52.1078ZM62.775 19.2159C61.9114 19.2159 61.149 18.9978 60.4877 18.5614C59.8265 18.1206 59.3092 17.4999 58.9359 16.6992C58.5626 15.8941 58.3759 14.9427 58.3759 13.8452C58.3759 12.7566 58.5626 11.812 58.9359 11.0114C59.3092 10.2107 59.8288 9.59221 60.4945 9.15589C61.1602 8.71958 61.9294 8.50142 62.802 8.50142C63.4767 8.50142 64.0098 8.61387 64.4011 8.83878C64.7969 9.05919 65.0983 9.31108 65.3052 9.59446C65.5166 9.87334 65.6808 10.1027 65.7978 10.2827H65.9327V5.18182H67.525V19H65.9867V17.4077H65.7978C65.6808 17.5966 65.5144 17.835 65.2985 18.1229C65.0826 18.4062 64.7744 18.6604 64.3741 18.8853C63.9738 19.1057 63.4408 19.2159 62.775 19.2159ZM62.9909 17.7855C63.6297 17.7855 64.1694 17.6191 64.6103 17.2862C65.0511 16.9489 65.3862 16.4833 65.6156 15.8896C65.845 15.2913 65.9597 14.6009 65.9597 13.8182C65.9597 13.0445 65.8472 12.3675 65.6223 11.7873C65.3974 11.2025 65.0646 10.7482 64.6238 10.4244C64.1829 10.096 63.6387 9.93182 62.9909 9.93182C62.3162 9.93182 61.754 10.105 61.3042 10.4513C60.8588 10.7932 60.5237 11.2588 60.2988 11.848C60.0784 12.4328 59.9682 13.0895 59.9682 13.8182C59.9682 14.5559 60.0807 15.2261 60.3056 15.8288C60.535 16.4271 60.8723 16.9039 61.3176 17.2592C61.7675 17.6101 62.3252 17.7855 62.9909 17.7855ZM75.0076 19.2159C74.0091 19.2159 73.1477 18.9955 72.4235 18.5547C71.7038 18.1094 71.1483 17.4886 70.7569 16.6925C70.3701 15.8918 70.1767 14.9607 70.1767 13.8991C70.1767 12.8376 70.3701 11.902 70.7569 11.0923C71.1483 10.2782 71.6925 9.64394 72.3897 9.18963C73.0914 8.73082 73.9101 8.50142 74.8457 8.50142C75.3855 8.50142 75.9185 8.59138 76.4448 8.77131C76.9711 8.95123 77.4501 9.24361 77.8819 9.64844C78.3137 10.0488 78.6578 10.5795 78.9142 11.2408C79.1706 11.902 79.2988 12.7161 79.2988 13.6832V14.358H71.3102V12.9815H77.6795C77.6795 12.3968 77.5626 11.875 77.3287 11.4162C77.0993 10.9574 76.7709 10.5953 76.3436 10.3299C75.9208 10.0645 75.4215 9.93182 74.8457 9.93182C74.2115 9.93182 73.6627 10.0893 73.1994 10.4041C72.7406 10.7145 72.3875 11.1193 72.1401 11.6186C71.8927 12.1179 71.769 12.6532 71.769 13.2244V14.142C71.769 14.9247 71.9039 15.5882 72.1738 16.1325C72.4482 16.6722 72.8283 17.0838 73.3141 17.3672C73.7999 17.6461 74.3644 17.7855 75.0076 17.7855C75.426 17.7855 75.8038 17.727 76.1412 17.6101C76.483 17.4886 76.7776 17.3087 77.025 17.0703C77.2724 16.8274 77.4636 16.526 77.5985 16.1662L79.1369 16.598C78.975 17.1198 78.7028 17.5786 78.3205 17.9744C77.9382 18.3658 77.4659 18.6716 76.9036 18.892C76.3413 19.108 75.7093 19.2159 75.0076 19.2159ZM81.7211 19V8.63636H83.2594V10.2017H83.3674C83.5563 9.68892 83.8981 9.27285 84.3929 8.95348C84.8877 8.63411 85.4455 8.47443 86.0662 8.47443C86.1832 8.47443 86.3294 8.47668 86.5048 8.48118C86.6802 8.48568 86.8129 8.49242 86.9029 8.50142V10.1207C86.8489 10.1072 86.7252 10.087 86.5318 10.06C86.3429 10.0285 86.1427 10.0128 85.9313 10.0128C85.4275 10.0128 84.9777 10.1185 84.5819 10.3299C84.1905 10.5368 83.8801 10.8247 83.6507 11.1935C83.4258 11.5579 83.3134 11.974 83.3134 12.4418V19H81.7211ZM89.0063 19V5.18182H90.5986V10.2827H90.7336C90.8505 10.1027 91.0125 9.87334 91.2194 9.59446C91.4308 9.31108 91.7322 9.05919 92.1235 8.83878C92.5193 8.61387 93.0546 8.50142 93.7293 8.50142C94.6019 8.50142 95.3711 8.71958 96.0368 9.15589C96.7026 9.59221 97.2221 10.2107 97.5954 11.0114C97.9688 11.812 98.1555 12.7566 98.1555 13.8452C98.1555 14.9427 97.9688 15.8941 97.5954 16.6992C97.2221 17.4999 96.7048 18.1206 96.0436 18.5614C95.3824 18.9978 94.6199 19.2159 93.7563 19.2159C93.0906 19.2159 92.5576 19.1057 92.1572 18.8853C91.7569 18.6604 91.4488 18.4062 91.2329 18.1229C91.017 17.835 90.8505 17.5966 90.7336 17.4077H90.5447V19H89.0063ZM90.5716 13.8182C90.5716 14.6009 90.6863 15.2913 90.9157 15.8896C91.1452 16.4833 91.4803 16.9489 91.9211 17.2862C92.3619 17.6191 92.9017 17.7855 93.5404 17.7855C94.2061 17.7855 94.7616 17.6101 95.2069 17.2592C95.6568 16.9039 95.9941 16.4271 96.219 15.8288C96.4484 15.2261 96.5631 14.5559 96.5631 13.8182C96.5631 13.0895 96.4507 12.4328 96.2258 11.848C96.0054 11.2588 95.6702 10.7932 95.2204 10.4513C94.7751 10.105 94.2151 9.93182 93.5404 9.93182C92.8927 9.93182 92.3484 10.096 91.9076 10.4244C91.4668 10.7482 91.1339 11.2025 90.909 11.7873C90.6841 12.3675 90.5716 13.0445 90.5716 13.8182ZM104.801 19.2159C103.866 19.2159 103.045 18.9933 102.339 18.5479C101.637 18.1026 101.088 17.4796 100.692 16.679C100.301 15.8783 100.105 14.9427 100.105 13.8722C100.105 12.7926 100.301 11.8503 100.692 11.0451C101.088 10.2399 101.637 9.6147 102.339 9.16939C103.045 8.72408 103.866 8.50142 104.801 8.50142C105.737 8.50142 106.556 8.72408 107.257 9.16939C107.964 9.6147 108.512 10.2399 108.904 11.0451C109.3 11.8503 109.497 12.7926 109.497 13.8722C109.497 14.9427 109.3 15.8783 108.904 16.679C108.512 17.4796 107.964 18.1026 107.257 18.5479C106.556 18.9933 105.737 19.2159 104.801 19.2159ZM104.801 17.7855C105.512 17.7855 106.097 17.6033 106.556 17.239C107.014 16.8746 107.354 16.3956 107.574 15.8018C107.795 15.2081 107.905 14.5649 107.905 13.8722C107.905 13.1795 107.795 12.534 107.574 11.9357C107.354 11.3375 107.014 10.8539 106.556 10.4851C106.097 10.1162 105.512 9.93182 104.801 9.93182C104.091 9.93182 103.506 10.1162 103.047 10.4851C102.588 10.8539 102.249 11.3375 102.028 11.9357C101.808 12.534 101.698 13.1795 101.698 13.8722C101.698 14.5649 101.808 15.2081 102.028 15.8018C102.249 16.3956 102.588 16.8746 103.047 17.239C103.506 17.6033 104.091 17.7855 104.801 17.7855ZM116.138 19.2159C115.203 19.2159 114.382 18.9933 113.676 18.5479C112.974 18.1026 112.425 17.4796 112.029 16.679C111.638 15.8783 111.442 14.9427 111.442 13.8722C111.442 12.7926 111.638 11.8503 112.029 11.0451C112.425 10.2399 112.974 9.6147 113.676 9.16939C114.382 8.72408 115.203 8.50142 116.138 8.50142C117.074 8.50142 117.893 8.72408 118.594 9.16939C119.3 9.6147 119.849 10.2399 120.241 11.0451C120.636 11.8503 120.834 12.7926 120.834 13.8722C120.834 14.9427 120.636 15.8783 120.241 16.679C119.849 17.4796 119.3 18.1026 118.594 18.5479C117.893 18.9933 117.074 19.2159 116.138 19.2159ZM116.138 17.7855C116.849 17.7855 117.434 17.6033 117.893 17.239C118.351 16.8746 118.691 16.3956 118.911 15.8018C119.132 15.2081 119.242 14.5649 119.242 13.8722C119.242 13.1795 119.132 12.534 118.911 11.9357C118.691 11.3375 118.351 10.8539 117.893 10.4851C117.434 10.1162 116.849 9.93182 116.138 9.93182C115.428 9.93182 114.843 10.1162 114.384 10.4851C113.925 10.8539 113.586 11.3375 113.365 11.9357C113.145 12.534 113.035 13.1795 113.035 13.8722C113.035 14.5649 113.145 15.2081 113.365 15.8018C113.586 16.3956 113.925 16.8746 114.384 17.239C114.843 17.6033 115.428 17.7855 116.138 17.7855ZM124.749 15.2216L124.722 13.2514H125.046L129.58 8.63636H131.551L126.72 13.5213H126.585L124.749 15.2216ZM123.265 19V5.18182H124.857V19H123.265ZM129.85 19L125.802 13.8722L126.935 12.7656L131.874 19H129.85Z" fill="#FFF4E1"/>
</svg>
