<svg xmlns="http://www.w3.org/2000/svg" width="212" height="24" fill="none"><path fill="#FF3466" fill-rule="evenodd" d="M12.081 24c-2.318 0-4.246-.7-5.786-2.484a19.77 19.77 0 0 1-1.738-2.385l-.01-.016-3.85-6.57a4.82 4.82 0 0 1-.695-2.57c-.003-1.67 0-3.344 0-5.015 0-.958-.025-1.712.408-2.594C1.183.79 2.857.037 4.552.016 7.057-.016 9.579.01 12.082.01c2.502 0 5.026-.026 7.529.006 1.695.021 3.366.773 4.139 2.35.433.885.406 1.64.409 2.594 0 1.67.003 3.345 0 5.016 0 .607-.067 1.077-.265 1.652-.11.32-.256.623-.43.917l-3.853 6.57-.01.016a19.766 19.766 0 0 1-1.739 2.385C16.325 23.299 14.394 24 12.076 24h.005Z" clip-rule="evenodd"/><path fill="#FFF4E1" fill-rule="evenodd" d="M12.06 22.842c-1.96-.003-3.572-.556-4.888-2.083a18.554 18.554 0 0 1-1.633-2.246l-3.843-6.556a4.154 4.154 0 0 1-.334-.709c-.155-.454-.2-.772-.2-1.278V4.957c0-.896-.027-1.441.291-2.086.572-1.17 1.858-1.687 3.115-1.703.265-.002 2.87-.005 7.495-.005s7.23 0 7.494.005c1.26.016 2.543.532 3.115 1.703.316.645.29 1.193.292 2.086 0 1.928.003 3.599 0 5.013 0 .506-.048.824-.2 1.278a3.965 3.965 0 0 1-.335.709l-3.842 6.556a18.543 18.543 0 0 1-1.634 2.246c-1.315 1.527-2.928 2.078-4.888 2.083h-.005Zm0-20.22H4.106c-.738 0-1.337.597-1.337 1.338v5.933c0 .623.15 1.157.473 1.692l1.291 2.131 3.008 4.966c.912 1.443 2.562 2.443 4.52 2.438 1.956.005 3.606-.992 4.518-2.438l3.008-4.966 1.291-2.13a3.12 3.12 0 0 0 .474-1.693V3.96c0-.738-.6-1.337-1.337-1.337H12.06Z" clip-rule="evenodd"/><path fill="#371853" fill-rule="evenodd" d="M21.351 9.89V3.96c0-.738-.598-1.337-1.336-1.337H4.105c-.738 0-1.336.596-1.336 1.337v5.933c0 .623.15 1.158.473 1.692l1.291 2.131 3.008 4.966c.912 1.444 2.562 2.444 4.519 2.438 1.957.005 3.607-.992 4.519-2.438l3.008-4.966 1.291-2.13a3.12 3.12 0 0 0 .473-1.693V9.89Z" clip-rule="evenodd"/><path fill="#FFF4E1" fill-rule="evenodd" d="M13.598 10.692c1.371-.558 2.69-1.227 3.78-2.374.086-.123.1-.326.03-.444l-.177-.294-.179-.3c-.07-.117-.2-.112-.286.011-1.04 1.094-2.289 1.752-3.59 2.294.574-1.363 1.031-2.767.991-4.347-.024-.145-.158-.308-.297-.334l-.337-.086-.336-.086c-.129-.032-.222.06-.201.217.037 1.513-.38 2.864-.92 4.171-.559-1.371-1.227-2.692-2.374-3.786-.123-.085-.326-.099-.444-.03l-.297.177-.297.177c-.117.07-.112.2.011.286 1.094 1.04 1.751 2.288 2.294 3.59-1.363-.574-2.767-1.031-4.347-.991-.145.024-.308.157-.335.296l-.085.337-.086.337c-.032.129.06.222.217.2 1.505-.037 2.853.378 4.158.915-1.37.559-2.685 1.227-3.776 2.372-.085.123-.099.326-.03.444l.177.296.177.297c.07.118.2.113.286-.01 1.043-1.097 2.297-1.757 3.604-2.302-.577 1.368-1.04 2.777-1 4.36.03.153.169.303.297.335l.337.085.34.086c.128.032.221-.06.2-.217-.035-1.505.38-2.85.917-4.155.559 1.366 1.227 2.682 2.372 3.773.123.085.326.099.444.03l.296-.177.297-.177c.118-.07.112-.2-.01-.286-1.097-1.043-1.757-2.297-2.303-3.604 1.37.577 2.778 1.04 4.361 1a.465.465 0 0 0 .334-.297l.086-.337.086-.337c.032-.128-.06-.222-.217-.2-1.51.035-2.861-.385-4.168-.923v.008Z" clip-rule="evenodd"/><path fill="#FFF4E1" d="M68.17 5.131c2.883.201 5.293 2.118 5.474 5.062.006.061-.043.114-.1.114l-3.328.009c-.12 0-.195-.062-.222-.183-.251-1.178-.986-1.801-2.2-1.863-2.54-.134-3.094 2.428-2.926 4.45.113 1.355.71 2.604 2.075 2.92 1.399.32 2.584-.194 3.025-1.659v.003a.199.199 0 0 1 .184-.137l3.297-.008c.123 0 .217.11.195.233-.377 2.152-1.599 3.626-3.668 4.415-1.859.708-4.39.48-6.118-.655-1.668-1.102-2.585-2.803-2.749-5.105-.141-1.99.27-4.066 1.583-5.537 1.37-1.53 3.196-2.216 5.479-2.059Zm30.752.056a5.88 5.88 0 0 1 5.92 5.837l.013 1.845a5.878 5.878 0 0 1-5.836 5.92l-1.113.008a5.88 5.88 0 0 1-5.92-5.837l-.013-1.845a5.88 5.88 0 0 1 5.837-5.92l1.112-.008Zm-55.206.115c.075 0 .134.062.134.137v2.62a.149.149 0 0 1-.147.155l-3.752.005a.138.138 0 0 0-.139.139l.011 10.204a.14.14 0 0 1-.141.144l-3.316.006a.148.148 0 0 1-.144-.145l-.016-10.203a.135.135 0 0 0-.14-.139h-3.75a.146.146 0 0 1-.151-.15l-.005-2.623a.14.14 0 0 1 .134-.136l11.428-.017-.006.003Zm15.58-.024c.102.003.166.11.118.201l-4.642 8.66c-.13.24-.194.509-.2.779v3.623c0 .085-.07.157-.155.16h-3.262l.002-.003a.158.158 0 0 1-.154-.16l-.006-3.623c0-.27-.067-.535-.198-.773l-4.647-8.66a.134.134 0 0 1 .117-.198l3.739-.006c.07 0 .133.04.163.102l2.486 5.227c.054.11.201.112.252.005l2.486-5.232a.177.177 0 0 1 .164-.102h3.738Zm20.936.008c.08.002.15.072.15.158l-.005 4.923c0 .088.07.157.155.157l4.522.006a.16.16 0 0 0 .154-.158l.006-4.925a.15.15 0 0 1 .152-.152h3.33c.071.002.13.061.13.13l-.013 13.147c0 .07-.056.126-.131.126H85.35a.159.159 0 0 1-.153-.157l.005-4.926a.156.156 0 0 0-.155-.155l-4.522-.005a.16.16 0 0 0-.155.158l-.005 4.925a.15.15 0 0 1-.15.152h-3.328a.135.135 0 0 1-.131-.13l.012-13.148c0-.07.058-.126.132-.126h3.331Zm17.963 3.03a2.503 2.503 0 0 0-2.478 2.516l.015 2.363a2.496 2.496 0 0 0 2.514 2.479h.388a2.499 2.499 0 0 0 2.475-2.516l-.015-2.363h.002a2.496 2.496 0 0 0-2.513-2.479h-.388Z"/><path fill="#FFF4E1" d="m204.294 15.117-.027-1.97h.324l4.534-4.615h1.97l-4.831 4.885h-.135l-1.835 1.7Zm-1.485 3.779V5.077h1.593v13.819h-1.593Zm6.586 0-4.049-5.128 1.134-1.107 4.939 6.235h-2.024ZM195.683 19.111c-.936 0-1.757-.222-2.463-.668-.702-.445-1.251-1.068-1.646-1.869-.392-.8-.587-1.736-.587-2.806 0-1.08.195-2.022.587-2.827.395-.806.944-1.43 1.646-1.876.706-.445 1.527-.668 2.463-.668.935 0 1.754.223 2.456.668.706.445 1.255 1.07 1.646 1.876.396.805.594 1.747.594 2.827 0 1.07-.198 2.006-.594 2.806-.391.801-.94 1.424-1.646 1.87-.702.445-1.521.668-2.456.668Zm0-1.43c.71 0 1.295-.182 1.754-.547a3.225 3.225 0 0 0 1.019-1.437c.22-.593.33-1.237.33-1.93 0-.692-.11-1.337-.33-1.936a3.267 3.267 0 0 0-1.019-1.45c-.459-.37-1.044-.554-1.754-.554-.711 0-1.296.185-1.755.554a3.266 3.266 0 0 0-1.018 1.45 5.544 5.544 0 0 0-.331 1.937c0 .692.11 1.336.331 1.93.22.593.56 1.072 1.018 1.436.459.365 1.044.547 1.755.547ZM184.346 19.111c-.936 0-1.757-.222-2.463-.668-.702-.445-1.251-1.068-1.646-1.869-.392-.8-.587-1.736-.587-2.806 0-1.08.195-2.022.587-2.827.395-.806.944-1.43 1.646-1.876.706-.445 1.527-.668 2.463-.668.935 0 1.754.223 2.456.668.706.445 1.255 1.07 1.646 1.876.396.805.594 1.747.594 2.827 0 1.07-.198 2.006-.594 2.806-.391.801-.94 1.424-1.646 1.87-.702.445-1.521.668-2.456.668Zm0-1.43c.71 0 1.295-.182 1.754-.547a3.225 3.225 0 0 0 1.019-1.437c.22-.593.33-1.237.33-1.93 0-.692-.11-1.337-.33-1.936a3.267 3.267 0 0 0-1.019-1.45c-.459-.37-1.044-.554-1.754-.554-.711 0-1.296.185-1.755.554a3.266 3.266 0 0 0-1.018 1.45 5.544 5.544 0 0 0-.331 1.937c0 .692.11 1.336.331 1.93.22.593.56 1.072 1.018 1.436.459.365 1.044.547 1.755.547ZM168.551 18.896V5.077h1.592v5.101h.135c.117-.18.279-.41.486-.688.211-.283.512-.535.904-.756.396-.225.931-.337 1.606-.337.872 0 1.641.218 2.307.654.666.437 1.185 1.055 1.559 1.856.373.8.56 1.745.56 2.834 0 1.097-.187 2.049-.56 2.854-.374.8-.891 1.421-1.552 1.862-.661.436-1.424.654-2.287.654-.666 0-1.199-.11-1.6-.33-.4-.225-.708-.48-.924-.763a10.141 10.141 0 0 1-.499-.715h-.189v1.593h-1.538Zm1.565-5.182c0 .782.115 1.473.344 2.071.229.594.564 1.06 1.005 1.397.441.333.981.5 1.62.5.665 0 1.221-.176 1.666-.527.45-.356.787-.832 1.012-1.43.23-.603.344-1.274.344-2.011 0-.729-.112-1.386-.337-1.97-.22-.59-.556-1.055-1.005-1.397-.446-.346-1.006-.52-1.68-.52-.648 0-1.192.165-1.633.493-.441.324-.774.778-.999 1.363-.225.58-.337 1.257-.337 2.03ZM161.265 18.895V8.532h1.539v1.565h.108c.189-.513.53-.929 1.025-1.248a3.021 3.021 0 0 1 1.674-.48c.117 0 .263.003.438.008.176.004.308.01.398.02v1.62a4.662 4.662 0 0 0-.371-.062 3.65 3.65 0 0 0-.6-.047c-.504 0-.954.106-1.35.317a2.392 2.392 0 0 0-.931.864c-.225.364-.337.78-.337 1.248v6.558h-1.593ZM154.552 19.111c-.999 0-1.86-.22-2.584-.66a4.441 4.441 0 0 1-1.667-1.863c-.387-.8-.58-1.732-.58-2.793 0-1.062.193-1.998.58-2.807.392-.814.936-1.449 1.633-1.903.702-.459 1.52-.688 2.456-.688.54 0 1.073.09 1.599.27.526.18 1.005.472 1.437.877.432.4.776.931 1.033 1.592.256.662.384 1.476.384 2.443v.675h-7.989v-1.377h6.37c0-.585-.117-1.106-.351-1.565a2.642 2.642 0 0 0-.985-1.086c-.423-.266-.922-.399-1.498-.399-.634 0-1.183.158-1.646.473-.459.31-.812.715-1.06 1.214a3.573 3.573 0 0 0-.371 1.606v.918c0 .782.135 1.446.405 1.99.274.54.655.951 1.14 1.235.486.279 1.051.418 1.694.418.418 0 .796-.058 1.133-.175.342-.122.637-.302.884-.54.248-.243.439-.544.574-.904l1.538.432c-.162.521-.434.98-.816 1.376a3.989 3.989 0 0 1-1.417.918c-.562.215-1.194.323-1.896.323ZM142.319 19.111c-.863 0-1.626-.218-2.287-.654-.661-.44-1.178-1.062-1.552-1.862-.373-.805-.56-1.757-.56-2.854 0-1.089.187-2.033.56-2.834.374-.8.893-1.42 1.559-1.856.665-.436 1.435-.654 2.307-.654.675 0 1.208.112 1.599.337.396.22.698.473.905.756.211.279.375.508.492.688h.135v-5.1h1.592v13.818h-1.538v-1.593h-.189c-.117.19-.283.428-.499.715-.216.284-.524.538-.925.763-.4.22-.933.33-1.599.33Zm.216-1.43c.639 0 1.179-.166 1.62-.5.44-.337.775-.802 1.005-1.396.229-.598.344-1.289.344-2.071 0-.774-.112-1.45-.337-2.031-.225-.585-.558-1.04-.999-1.363-.441-.328-.985-.493-1.633-.493-.674 0-1.237.174-1.687.52-.445.342-.78.807-1.005 1.397-.22.584-.331 1.241-.331 1.97 0 .737.113 1.408.338 2.01.229.599.567 1.075 1.012 1.43.45.352 1.008.527 1.673.527ZM131.652 18.895V8.532h1.538v1.565h.108c.189-.513.531-.929 1.026-1.248a3.02 3.02 0 0 1 1.673-.48c.117 0 .263.003.439.008.175.004.308.01.398.02v1.62a4.75 4.75 0 0 0-.371-.062 3.653 3.653 0 0 0-.601-.047 2.82 2.82 0 0 0-1.349.317 2.392 2.392 0 0 0-.931.864c-.225.364-.338.78-.338 1.248v6.558h-1.592ZM129.054 11.986c0 1.458-.263 2.717-.789 3.779-.526 1.061-1.248 1.88-2.166 2.456-.918.576-1.966.863-3.144.863-1.179 0-2.227-.287-3.144-.863-.918-.576-1.64-1.395-2.166-2.456-.526-1.062-.79-2.321-.79-3.779 0-1.457.264-2.716.79-3.778.526-1.062 1.248-1.88 2.166-2.456.917-.576 1.965-.864 3.144-.864 1.178 0 2.226.288 3.144.864.918.576 1.64 1.394 2.166 2.456s.789 2.321.789 3.778Zm-1.619 0c0-1.196-.2-2.206-.6-3.029-.396-.823-.934-1.446-1.613-1.869a4.181 4.181 0 0 0-2.267-.634c-.837 0-1.595.211-2.274.634-.675.423-1.212 1.046-1.612 1.869-.396.823-.594 1.833-.594 3.03 0 1.196.198 2.206.594 3.029.4.823.937 1.446 1.612 1.869a4.215 4.215 0 0 0 2.274.634c.837 0 1.592-.211 2.267-.634.679-.423 1.217-1.046 1.613-1.87.4-.822.6-1.832.6-3.029Z" opacity=".5"/></svg>